<svg viewBox="0 0 1024 1024" xmlns="http://www.w3.org/2000/svg">
  <path d="M729.984 939.136H260.992c-106.496 0-192.768-86.272-192.768-192.768V277.248C68.096 170.752 154.496 84.48 260.992 84.48h468.992c106.496 0 192.768 86.272 192.768 192.768V746.24c0 106.496-86.272 192.896-192.768 192.896z" fill="#CECED3"/>
  <path d="M612.224 337.664l-11.776-18.56c-10.112-16-27.776-25.728-46.848-25.728h-120.448c-16.384 0-31.616 8.576-40.192 22.528l-12.672 20.992c-8.832 14.592-24.704 23.552-41.856 23.552h-97.536c-22.016 0-39.936 17.792-39.936 39.936v289.92c0 22.016 17.792 39.936 39.936 39.936h509.056c22.016 0 39.936-17.792 39.936-39.936V400.384c0-22.016-17.792-39.936-39.936-39.936h-96.384c-16.768 0-32.384-8.576-41.344-22.784z" fill="#2A2A2B"/>
  <path d="M310.528 324.352h-28.8c-7.936 0-14.464 6.4-14.464 14.464v8.832h57.6v-8.832c0.128-8.064-6.4-14.464-14.336-14.464z" fill="#2A2A2B"/>
  <circle cx="643.712" cy="425.728" r="18.688" fill="#FFC933"/>
  <path d="M495.488 665.344c-67.84 0-123.008-55.168-123.008-123.008s55.168-123.008 123.008-123.008 123.008 55.168 123.008 123.008-55.296 123.008-123.008 123.008zm0-228.096c-57.984 0-105.088 47.104-105.088 105.088s47.104 105.088 105.088 105.088 105.088-47.104 105.088-105.088-47.232-105.088-105.088-105.088z" fill="#D7D7DC"/>
</svg>
